<svg xmlns="http://www.w3.org/2000/svg" viewBox="0 0 72 72">
  <defs>
    <linearGradient id="cyan" x1="0%" y1="0%" x2="100%" y2="100%">
      <stop offset="0%" style="stop-color:#4DB8E8;stop-opacity:1" />
      <stop offset="100%" style="stop-color:#0E9ACF;stop-opacity:1" />
    </linearGradient>
    <linearGradient id="orange" x1="0%" y1="100%" x2="0%" y2="0%">
      <stop offset="0%" style="stop-color:#FF9500;stop-opacity:1" />
      <stop offset="100%" style="stop-color:#FFB347;stop-opacity:1" />
    </linearGradient>
  </defs>
  
  <!-- Cyan arc (left) -->
  <path d="M 20 12 Q 12 12 12 20 L 12 52 Q 12 60 20 60 L 28 60 L 28 54 L 20 54 Q 18 54 18 52 L 18 20 Q 18 18 20 18 L 28 18 L 28 12 Z" fill="url(#cyan)"/>
  
  <!-- Orange N (center, corrected direction) -->
  <path d="M 32 22 L 32 60 L 38 60 L 38 46 L 50 60 L 56 60 L 56 22 L 50 22 L 50 36 L 38 22 Z" fill="url(#orange)"/>
</svg>
