<svg xmlns="http://www.w3.org/2000/svg" viewBox="0 0 400 400">
  <defs>
    <linearGradient id="blueGrad" x1="0%" y1="0%" x2="100%" y2="100%">
      <stop offset="0%" style="stop-color:#5FB8A8;stop-opacity:1" />
      <stop offset="50%" style="stop-color:#3A9DBF;stop-opacity:1" />
      <stop offset="100%" style="stop-color:#2C7A8C;stop-opacity:1" />
    </linearGradient>
    <linearGradient id="orangeGrad" x1="0%" y1="0%" x2="0%" y2="100%">
      <stop offset="0%" style="stop-color:#FFB84D;stop-opacity:1" />
      <stop offset="100%" style="stop-color:#FF9500;stop-opacity:1" />
    </linearGradient>
  </defs>
  
  <!-- Left part (teal gradient arc) -->
  <path d="M 80 60 Q 40 60 40 100 L 40 300 Q 40 340 80 340 L 140 340 L 140 280 Q 140 240 100 240 L 100 160 Q 140 160 140 120 L 140 60 Z" fill="url(#blueGrad)"/>
  
  <!-- White N -->
  <path d="M 150 160 L 150 340 L 190 340 L 260 220 L 260 340 L 300 340 L 300 160 L 260 160 L 190 280 L 190 160 Z" fill="#FFFFFF"/>
  
  <!-- Right part (orange gradient arc) -->
  <path d="M 310 60 L 310 120 Q 310 160 350 160 L 350 240 Q 310 240 310 280 L 310 340 L 370 340 Q 410 340 410 300 L 410 100 Q 410 60 370 60 Z" fill="url(#orangeGrad)"/>
</svg>
