<svg xmlns="http://www.w3.org/2000/svg" viewBox="0 0 1280 496">
  <rect width="1280" height="496" fill="#000"/>
  <defs>
    <linearGradient id="nGrad" x1="0%" y1="0%" x2="100%" y2="100%">
      <stop offset="0%" style="stop-color:#5FB8A8;stop-opacity:1" />
      <stop offset="100%" style="stop-color:#2C7A8C;stop-opacity:1" />
    </linearGradient>
    <linearGradient id="dGrad" x1="0%" y1="0%" x2="0%" y2="100%">
      <stop offset="0%" style="stop-color:#FFA500;stop-opacity:1" />
      <stop offset="100%" style="stop-color:#FF8C00;stop-opacity:1" />
    </linearGradient>
  </defs>
  
  <!-- N with gradient -->
  <path d="M 67 100 L 67 400 L 100 400 L 160 200 L 160 400 L 193 400 L 193 100 L 160 100 L 100 300 L 100 100 Z" fill="url(#nGrad)"/>
  
  <!-- D part (curved) -->
  <path d="M 230 100 L 230 400 Q 330 400 330 250 Q 330 100 230 100 M 263 130 Q 297 130 297 250 Q 297 370 263 370 Z" fill="url(#dGrad)"/>
  
  <!-- Smiley in circle -->
  <circle cx="730" cy="250" r="80" fill="none" stroke="#2C7A8C" stroke-width="4"/>
  <circle cx="710" cy="235" r="5" fill="#2C7A8C"/>
  <circle cx="750" cy="235" r="5" fill="#2C7A8C"/>
  <path d="M 705 265 Q 730 280 755 265" fill="none" stroke="#2C7A8C" stroke-width="4" stroke-linecap="round"/>
  
  <!-- Green bird/leaf -->
  <path d="M 820 80 Q 850 60 880 80 Q 900 100 880 130 Q 860 150 840 140 Q 820 130 810 110 Z M 840 100 Q 850 90 860 100 Q 870 110 860 120 Q 850 130 840 120 Z" fill="#7FFF00"/>
  
  <!-- Stars and moons (decorative) -->
  <circle cx="1138" cy="103" r="18" fill="none" stroke="#FFA500" stroke-width="6"/>
  <circle cx="1128" cy="113" r="6" fill="#FFA500"/>
  <circle cx="1170" cy="150" r="12" fill="none" stroke="#FFA500" stroke-width="4"/>
  <circle cx="1165" cy="155" r="4" fill="#FFA500"/>
  <path d="M 1200 90 L 1205 100 L 1195 100 Z M 1200 70 L 1205 80 L 1195 80 Z" fill="#5FB8A8"/>
  <path d="M 1240 150 L 1246 162 L 1234 162 Z M 1240 125 L 1246 137 L 1234 137 Z" fill="#5FB8A8"/>
  <circle cx="1210" cy="220" r="20" fill="none" stroke="#FFA500" stroke-width="7"/>
  <circle cx="1198" cy="230" r="7" fill="#FFA500"/>
</svg>
