<svg xmlns="http://www.w3.org/2000/svg" viewBox="0 0 64 64">
  <defs>
    <linearGradient id="cyan" x1="0%" y1="0%" x2="100%" y2="100%">
      <stop offset="0%" style="stop-color:#4DB8E8;stop-opacity:1" />
      <stop offset="100%" style="stop-color:#0E9ACF;stop-opacity:1" />
    </linearGradient>
    <linearGradient id="orange" x1="0%" y1="100%" x2="0%" y2="0%">
      <stop offset="0%" style="stop-color:#FF9500;stop-opacity:1" />
      <stop offset="100%" style="stop-color:#FFB347;stop-opacity:1" />
    </linearGradient>
  </defs>
  
  <!-- Cyan arc (left) -->
  <path d="M 16 8 Q 8 8 8 16 L 8 48 Q 8 56 16 56 L 24 56 L 24 50 L 16 50 Q 14 50 14 48 L 14 16 Q 14 14 16 14 L 24 14 L 24 8 Z" fill="url(#cyan)"/>
  
  <!-- Orange N (center, corrected direction) -->
  <path d="M 28 18 L 28 56 L 34 56 L 34 42 L 46 56 L 52 56 L 52 18 L 46 18 L 46 32 L 34 18 Z" fill="url(#orange)"/>
</svg>
